<svg xmlns="http://www.w3.org/2000/svg" viewBox="0 0 117.75 109.91"><defs><style>.cls-1{fill:#666;}.cls-2{fill:#fff;}.cls-3{fill:#541818;}</style></defs><title>msdwc</title><g id="Layer_2" data-name="Layer 2"><g id="Layer_1-2" data-name="Layer 1"><g id="LvRncW.tif"><path class="cls-1" d="M117.75,32.87c-3,0-6.09,0-9.14,0a.56.56,0,0,0-.59.37q-6.18,12.14-12.39,24.25a1.45,1.45,0,0,0,0,1q1,6.65,2,13.28.83,5.37,1.64,10.76c0,.3.15.43.49.43,2.76,0,5.52,0,8.28,0h.54v17.82H108q-17.18,0-34.36,0a.85.85,0,0,0-.89.53c-1.44,2.77-2.92,5.52-4.37,8.29a.58.58,0,0,1-.6.36h-14a.67.67,0,0,1-.65-.37c-1.82-2.81-3.64-5.61-5.45-8.43a.72.72,0,0,0-.69-.37H13.29a1.27,1.27,0,0,1-.39,0,.53.53,0,0,1-.25-.24.8.8,0,0,1,0-.31V83.74c0-.53,0-.53.53-.53,2.86,0,5.73,0,8.59,0,.36,0,.46-.12.52-.44.74-4.67,1.5-9.33,2.25-14,.58-3.55,1.16-7.11,1.71-10.67a1,1,0,0,0-.17-.64c-2.43-4-4.88-8.08-7.31-12.11s-4.9-8.09-7.34-12.15a.61.61,0,0,0-.62-.34c-3.42,0-6.85,0-10.27,0-.53,0-.53,0-.53-.5V13.94c0-.51,0-.51.53-.51H19.59c.57,0,.57,0,.57-.57V.3H47.57a.73.73,0,0,1,.75.45Q54.62,12.65,61,24.55c0,.09.1.18.18.3a2.26,2.26,0,0,0,.17-.26Q67.63,12.37,73.92.14L74,0H98.61c0,.67.06,1.33.08,2,.07,3.62.15,7.24.22,10.85,0,.58,0,.58.62.58h17.68a5,5,0,0,1,.54.06ZM2.05,15.46V30.27c0,.58,0,.58.57.58,3.07,0,6.14,0,9.22,0a.78.78,0,0,1,.77.44q3.57,6,7.17,11.88Q24,50.11,28.18,57a1.1,1.1,0,0,1,.16.81c-.47,2.82-.92,5.64-1.38,8.46l-1.44,8.92c-.52,3.19-1,6.37-1.54,9.55-.06.37-.2.43-.53.43H14.71V98.75H48.07a.81.81,0,0,1,.78.43c1.77,2.76,3.56,5.51,5.33,8.27a.82.82,0,0,0,.79.42q5.81,0,11.61,0a.59.59,0,0,0,.61-.35c1.45-2.77,2.92-5.52,4.36-8.29a.79.79,0,0,1,.82-.48H106.6V85.49c0-.53,0-.53-.53-.53H98c-.32,0-.45-.08-.49-.41-.09-.74-.23-1.48-.34-2.21-.67-4.36-1.32-8.72-2-13.08-.59-3.83-1.19-7.66-1.77-11.49a1.16,1.16,0,0,1,.13-.63q6.57-12.89,13.13-25.76a.85.85,0,0,1,.9-.54c2.55,0,5.1,0,7.65,0,.34,0,.46-.09.46-.46,0-4.84,0-9.67,0-14.51,0-.14,0-.27,0-.43H97.43c-.36,0-.49-.09-.49-.47,0-2.55-.1-5.1-.15-7.65L96.7,2.49c0-.27,0-.45-.4-.45H75.51a.43.43,0,0,0-.45.28c-.31.62-.64,1.23-1,1.84L61.45,28.71c-.08.14-.17.28-.29.5-.32-.59-.59-1.1-.85-1.6Q53.67,15.13,47.05,2.66a.59.59,0,0,0-.6-.37H22.19V14.91c0,.55,0,.55-.56.55H2.05Z"/><path class="cls-2" d="M2.05,15.46H21.63c.56,0,.56,0,.56-.55V2.3H46.45a.59.59,0,0,1,.6.37q6.62,12.48,13.26,25c.26.5.53,1,.85,1.6.12-.22.21-.36.29-.5L74.11,4.16c.31-.61.64-1.22,1-1.84A.43.43,0,0,1,75.51,2H96.3c.37,0,.39.18.4.45l.09,4.86c0,2.55.11,5.1.15,7.65,0,.38.13.47.49.47h18.25c0,.16,0,.29,0,.43,0,4.84,0,9.67,0,14.51,0,.37-.12.46-.46.46-2.55,0-5.1,0-7.65,0a.85.85,0,0,0-.9.54q-6.56,12.89-13.13,25.76a1.16,1.16,0,0,0-.13.63c.58,3.83,1.18,7.66,1.77,11.49.67,4.36,1.32,8.72,2,13.08.11.73.25,1.47.34,2.21,0,.33.17.42.49.41h8c.53,0,.53,0,.53.53V98.75H72.37a.79.79,0,0,0-.82.48c-1.44,2.77-2.91,5.52-4.36,8.29a.59.59,0,0,1-.61.35q-5.8,0-11.61,0a.82.82,0,0,1-.79-.42c-1.77-2.76-3.56-5.51-5.33-8.27a.81.81,0,0,0-.78-.43H14.71V85.2h8.74c.33,0,.47-.06.53-.43.5-3.18,1-6.36,1.54-9.55L27,66.31c.46-2.82.91-5.64,1.38-8.46a1.1,1.1,0,0,0-.16-.81Q24,50.11,19.78,43.16q-3.59-5.94-7.17-11.88a.78.78,0,0,0-.77-.44c-3.08,0-6.15,0-9.22,0-.57,0-.57,0-.57-.58V15.46Zm75.15,34,.13,0c.08-.14.18-.28.26-.42q4-7.45,8.09-14.91a1.33,1.33,0,0,0,.15-.89q-1.14-6.81-2.24-13.61a5.64,5.64,0,0,1-.07-1.83,3.4,3.4,0,0,1,3.58-2.94c2.23,0,4.47,0,6.7.08.32,0,.43-.06.43-.41q0-4.47,0-8.94c0-.31-.1-.4-.41-.4h-17a.55.55,0,0,0-.54.34c-.65,1.3-1.32,2.58-2,3.87Q67.82,22,61.37,34.6l-.21.36c-.09-.15-.16-.25-.22-.37q-1.78-3.23-3.55-6.45-6.31-11.52-12.63-23a.66.66,0,0,0-.67-.4h-19l-.48,0V15h.62c1.83,0,3.66-.07,5.49-.08,1.13,0,2.25,0,3.37.1a3,3,0,0,1,2.55,3.18l-1.8,11.69Q33.94,35.94,33,42c-.67,4.35-1.32,8.7-2,13S29.66,64,29,68.39c-.75,4.67-1.54,9.33-2.29,14A9.14,9.14,0,0,1,25,86.65a2.24,2.24,0,0,1-1.93,1c-1.92,0-3.85,0-5.77,0-.39,0-.51.1-.51.5,0,2.7,0,5.39,0,8.08,0,.12,0,.23,0,.38h.41q12.87,0,25.73,0c.37,0,.49-.08.49-.47,0-2.57,0-5.15,0-7.73,0-.14,0-.28,0-.43-.67-.06-1.3-.14-1.94-.19A3.06,3.06,0,0,1,38.67,84c.38-1.77.6-3.58.88-5.37L41.38,67q1-6.61,2.09-13.23L45.93,38c.06-.41.14-.82.21-1.23h.09l15,27.64L74,36.84C75.11,41.14,76.16,45.32,77.2,49.5ZM61.43,86.77,45.67,57.14l-.13,0c-.07.43-.14.86-.2,1.3l-1.68,11c-.51,3.35-1,6.71-1.55,10.06a1.28,1.28,0,0,0,.15.82l4.86,8.91,8.17,15a.63.63,0,0,0,.64.38c3.14,0,6.27,0,9.41,0a.59.59,0,0,0,.61-.37Q69.76,97,73.6,89.8l8.64-16.35,7.92-15q6-11.41,12.09-22.82c.94-1.78,1.92-3.53,2.89-5.3a3.54,3.54,0,0,1,3.28-2c1.12,0,2.23,0,3.34,0h1V28c0-3.11,0-6.22,0-9.34,0-.38-.11-.48-.48-.48H86.58a4.19,4.19,0,0,0-.47.05c0,.17,0,.3,0,.43.49,3,1,5.92,1.48,8.88,0,.28.15.39.45.39,1.2,0,2.41,0,3.61,0,.59,0,.68.14.55.72a.67.67,0,0,1-.07.18c-.57,1.25-1.09,2.52-1.73,3.73Q86.63,39.77,82.76,47q-5,9.36-10,18.72L62.64,84.53ZM33.82,18.18H5V28.41h.48c1.94,0,3.87,0,5.81-.08a3.82,3.82,0,0,1,3.76,2.1c.9,1.66,1.9,3.28,2.85,4.91L28.2,53c.07.12.16.24.3.45.05-.26.09-.39.11-.53.48-3.07,1-6.14,1.45-9.21.51-3.26,1-6.53,1.55-9.79.37-2.27.38-2.36-.52-3.9-.13-.23-.27-.44-.39-.68a4.67,4.67,0,0,1-.37-.82c-.12-.38,0-.57.43-.58s1,0,1.49,0,.52-.15.56-.54c.21-2,.45-4.08.67-6.12C33.6,20.25,33.7,19.24,33.82,18.18Zm70.06,69.49-.54,0c-1.79-.06-3.58-.1-5.37-.18a3.32,3.32,0,0,1-3.2-2.73c-.21-1-.33-2.11-.48-3.16q-.47-3.27-.92-6.54c-.28-2-.54-4.06-.81-6.09q-.37-2.81-.77-5.62c-.08-.6-.17-1.21-.26-1.82a.76.76,0,0,0-.29.34q-4.35,8.83-8.71,17.66a1,1,0,0,0-.07.86c.4,1.33.8,2.67,1.18,4a3.48,3.48,0,0,1-.17,2.44,1,1,0,0,1-.83.64,8.42,8.42,0,0,1-1,.09c-1.23,0-2.46.08-3.69.09-.36,0-.45.13-.45.49q0,4,0,8c0,.38.11.47.48.47q12.73,0,25.46,0c.35,0,.46-.09.46-.45,0-2.67,0-5.34,0-8ZM61.37,69.32a2.92,2.92,0,0,1-.19-.31c-.79-1.41-1.57-2.83-2.36-4.25L51.44,51.47c-.87-1.58-1.75-3.15-2.61-4.73a.5.5,0,0,0-.63-.3,8.67,8.67,0,0,1-1.11.21c-.3,0-.39.19-.42.46-.24,1.73-.5,3.47-.72,5.2a1.36,1.36,0,0,0,.13.77q3.86,7.26,7.73,14.49l7,13.06c.2.38.41.75.65,1.19l.25-.44,4.44-8.82q4.88-9.7,9.74-19.41A.88.88,0,0,0,76,52.6c-.54-1.94-1.1-3.87-1.65-5.81a.35.35,0,0,0-.38-.29,9.08,9.08,0,0,1-1.17-.1.47.47,0,0,0-.6.32Q70.09,51.1,68,55.46q-2.47,5.2-5,10.4C62.49,67,61.94,68.12,61.37,69.32Z"/><path class="cls-3" d="M77.2,49.5c-1-4.18-2.09-8.36-3.17-12.66L61.24,64.35l-15-27.64h-.09c-.07.41-.15.82-.21,1.23L43.47,53.74q-1,6.61-2.09,13.23L39.55,78.62c-.28,1.79-.5,3.6-.88,5.37a3.06,3.06,0,0,0,2.85,3.77c.64,0,1.27.13,1.94.19,0,.15,0,.29,0,.43,0,2.58,0,5.16,0,7.73,0,.39-.12.47-.49.47q-12.87,0-25.73,0h-.41c0-.15,0-.26,0-.38,0-2.69,0-5.38,0-8.08,0-.4.12-.5.51-.5,1.92,0,3.85,0,5.77,0a2.24,2.24,0,0,0,1.93-1,9.14,9.14,0,0,0,1.64-4.26c.75-4.67,1.54-9.33,2.29-14Q30,61.73,31,55.05c.67-4.35,1.32-8.7,2-13q.91-6.06,1.86-12.12l1.8-11.69A3,3,0,0,0,34.14,15c-1.12-.08-2.24-.1-3.37-.1-1.83,0-3.66.05-5.49.08h-.62V4.75l.48,0h19a.66.66,0,0,1,.67.4q6.3,11.51,12.63,23,1.77,3.22,3.55,6.45c.06.12.13.22.22.37l.21-.36Q67.82,22,74.28,9.46c.66-1.29,1.33-2.57,2-3.87a.55.55,0,0,1,.54-.34h17c.31,0,.41.09.41.4q0,4.47,0,8.94c0,.35-.11.42-.43.41-2.23,0-4.47-.07-6.7-.08a3.4,3.4,0,0,0-3.58,2.94,5.64,5.64,0,0,0,.07,1.83q1.09,6.81,2.24,13.61a1.33,1.33,0,0,1-.15.89q-4.05,7.45-8.09,14.91c-.08.14-.18.28-.26.42Z"/><path class="cls-1" d="M61.43,86.77l1.21-2.24,10.1-18.82q5-9.36,10-18.72,3.85-7.23,7.68-14.47c.64-1.21,1.16-2.48,1.73-3.73a.67.67,0,0,0,.07-.18c.13-.58,0-.72-.55-.72-1.2,0-2.41,0-3.61,0-.3,0-.41-.11-.45-.39-.49-3-1-5.92-1.48-8.88,0-.13,0-.26,0-.43a4.19,4.19,0,0,1,.47-.05h25.69c.37,0,.48.1.48.48,0,3.12,0,6.23,0,9.34v.43h-1c-1.11,0-2.22,0-3.34,0a3.54,3.54,0,0,0-3.28,2c-1,1.77-2,3.52-2.89,5.3q-6.06,11.4-12.09,22.82l-7.92,15L73.6,89.8Q69.78,97,66,104.28a.59.59,0,0,1-.61.37c-3.14,0-6.27,0-9.41,0a.63.63,0,0,1-.64-.38l-8.17-15-4.86-8.91a1.28,1.28,0,0,1-.15-.82c.53-3.35,1-6.71,1.55-10.06l1.68-11c.06-.44.13-.87.2-1.3l.13,0Z"/><path class="cls-1" d="M33.82,18.18c-.12,1.06-.22,2.07-.34,3.08-.22,2-.46,4.08-.67,6.12,0,.39-.16.55-.56.54s-1,0-1.49,0-.55.2-.43.58a4.67,4.67,0,0,0,.37.82c.12.24.26.45.39.68.9,1.54.89,1.63.52,3.9-.53,3.26-1,6.53-1.55,9.79-.48,3.07-1,6.14-1.45,9.21,0,.14-.06.27-.11.53-.14-.21-.23-.33-.3-.45L17.94,35.34c-1-1.63-2-3.25-2.85-4.91a3.82,3.82,0,0,0-3.76-2.1c-1.94,0-3.87.05-5.81.08H5V18.18Z"/><path class="cls-3" d="M103.88,87.67v.46c0,2.66,0,5.33,0,8,0,.36-.11.45-.46.45q-12.74,0-25.46,0c-.37,0-.48-.09-.48-.47q0-4,0-8c0-.36.09-.48.45-.49,1.23,0,2.46-.05,3.69-.09a8.42,8.42,0,0,0,1-.09,1,1,0,0,0,.83-.64,3.48,3.48,0,0,0,.17-2.44c-.38-1.34-.78-2.68-1.18-4a1,1,0,0,1,.07-.86q4.36-8.82,8.71-17.66a.76.76,0,0,1,.29-.34c.09.61.18,1.22.26,1.82q.39,2.82.77,5.62c.27,2,.53,4.06.81,6.09q.45,3.27.92,6.54c.15,1,.27,2.12.48,3.16A3.32,3.32,0,0,0,98,87.45c1.79.08,3.58.12,5.37.18Z"/><path class="cls-1" d="M61.37,69.32c.57-1.2,1.12-2.33,1.66-3.46q2.48-5.2,5-10.4,2.1-4.37,4.17-8.74a.47.47,0,0,1,.6-.32,9.08,9.08,0,0,0,1.17.1.35.35,0,0,1,.38.29c.55,1.94,1.11,3.87,1.65,5.81a.88.88,0,0,1-.08.55Q71,62.86,66.14,72.56L61.7,81.38l-.25.44c-.24-.44-.45-.81-.65-1.19l-7-13.06q-3.87-7.24-7.73-14.49a1.36,1.36,0,0,1-.13-.77c.22-1.73.48-3.47.72-5.2,0-.27.12-.42.42-.46a8.67,8.67,0,0,0,1.11-.21.5.5,0,0,1,.63.3c.86,1.58,1.74,3.15,2.61,4.73l7.38,13.29c.79,1.42,1.57,2.84,2.36,4.25A2.92,2.92,0,0,0,61.37,69.32Zm0,8.08,1.42-2.85q5.3-10.53,10.6-21a2,2,0,0,0,.16-1.8c-.23-.61-.37-1.26-.58-2l-11.45,24h-.13l-13-23.5c-.16.54-.21,1.05-.32,1.56a1.57,1.57,0,0,0,.19,1.12c1.29,2.37,2.56,4.76,3.84,7.14l8.77,16.42Z"/></g></g></g></svg>