<svg xmlns="http://www.w3.org/2000/svg" viewBox="0 0 435.87 508.89"><defs><style>.cls-1{fill:none;}.cls-2{fill:#fff;}.cls-3{fill:#e1e1e1;}.cls-4{fill:#666;}.cls-5{fill:#541818;}</style></defs><title>Asset 6</title><g id="Layer_2" data-name="Layer 2"><g id="Layer_3" data-name="Layer 3"><rect class="cls-1" x="53.37" y="367" width="330" height="4"/><polygon class="cls-2" points="215.84 504.55 220.19 504.55 431.12 455.84 431.12 4.97 4.83 4.97 4.83 455.82 215.84 504.55"/><path class="cls-3" d="M431.1,0H.2V.18H0V457.64H.52l212.72,50.05,5.24,1.2,7.26-1.64,210.09-49.43-.07-.36h.11V0Zm0,454.07-212.54,50L4.78,453.78V4.85H431.1Z"/><g id="LvRncW.tif"><path class="cls-4" d="M379.37,130.68q-12.69,0-25.39,0a1.61,1.61,0,0,0-1.66,1q-17.18,32-34.43,64a3.7,3.7,0,0,0-.13,2.59q2.81,17.52,5.64,35,2.28,14.19,4.56,28.38c.13.79.4,1.14,1.37,1.14,7.66-.05,15.33,0,23,0h1.49v47h-1.55q-47.73,0-95.47,0a2.41,2.41,0,0,0-2.5,1.41c-4,7.3-8.1,14.55-12.13,21.84a1.64,1.64,0,0,1-1.68,1q-19.4,0-38.8,0a2,2,0,0,1-1.83-1c-5-7.41-10.1-14.8-15.13-22.22a2,2,0,0,0-1.91-1q-46.86,0-93.73,0a3.51,3.51,0,0,1-1.08,0,1.43,1.43,0,0,1-.71-.64c-.12-.22,0-.54,0-.82V264.86c0-1.4,0-1.4,1.47-1.4,8,0,15.91,0,23.87,0,1,0,1.3-.32,1.44-1.17q3.12-18.47,6.27-36.91c1.6-9.37,3.21-18.75,4.76-28.13a2.73,2.73,0,0,0-.5-1.71q-10.12-16-20.31-31.94t-20.39-32a1.73,1.73,0,0,0-1.71-.91q-14.28,0-28.56,0c-1.46,0-1.46,0-1.46-1.32q0-24.32,0-48.62c0-1.32,0-1.33,1.47-1.33h53c1.59,0,1.59,0,1.59-1.5V44.79h1.6q37.28,0,74.55,0A2,2,0,0,1,186.41,46Q204,77.36,221.55,108.74l.49.81a7.76,7.76,0,0,0,.49-.71q17.52-32.22,35-64.46a2.59,2.59,0,0,0,.17-.38h68.45c.07,1.76.18,3.51.22,5.27q.32,14.31.61,28.63c0,1.52.05,1.52,1.72,1.52h49.14c.5,0,1,.1,1.5.15ZM57.85,84.77v39.07c0,1.53,0,1.53,1.57,1.53,8.54,0,17.08,0,25.62,0a2.19,2.19,0,0,1,2.15,1.15q9.93,15.67,19.92,31.32,11.65,18.31,23.34,36.61a2.81,2.81,0,0,1,.44,2.13q-1.94,11.16-3.83,22.32-2,11.76-4,23.54c-1.43,8.39-2.89,16.77-4.27,25.17-.16,1-.55,1.14-1.46,1.13-7.66,0-15.33,0-23,0H93v35.72h1.92q45.41,0,90.79,0a2.27,2.27,0,0,1,2.17,1.14c4.92,7.28,9.89,14.52,14.81,21.8a2.31,2.31,0,0,0,2.2,1.12q16.13-.06,32.26,0a1.62,1.62,0,0,0,1.69-.93c4-7.29,8.12-14.55,12.13-21.85a2.19,2.19,0,0,1,2.26-1.27q46.81,0,93.62,0h1.51v-35c0-1.4,0-1.4-1.46-1.4-7.45,0-14.9,0-22.34,0-.91,0-1.28-.22-1.39-1.11-.25-1.94-.63-3.88-.94-5.81q-2.76-17.25-5.53-34.5c-1.63-10.11-3.29-20.2-4.9-30.31a2.74,2.74,0,0,1,.36-1.66q18.22-34,36.48-67.94a2.38,2.38,0,0,1,2.5-1.41c7.08.06,14.17,0,21.25,0,1,0,1.3-.23,1.3-1.21,0-12.76,0-25.51,0-38.27,0-.36,0-.72-.07-1.14H372q-24.52,0-49,0c-1,0-1.36-.22-1.38-1.23-.09-6.72-.26-13.44-.4-20.16Q321,57,320.87,50.57c0-.7-.08-1.2-1.11-1.2q-28.89,0-57.77,0a1.22,1.22,0,0,0-1.26.73c-.86,1.63-1.77,3.24-2.65,4.87Q240.5,87.35,222.9,119.72c-.2.38-.45.74-.8,1.3-.88-1.55-1.62-2.88-2.37-4.21Q201.31,83.92,182.89,51a1.65,1.65,0,0,0-1.67-1q-33,0-66,0H113.8V83.31c0,1.46,0,1.46-1.55,1.46H57.85Z"/><path class="cls-2" d="M57.85,84.77h54.4c1.55,0,1.55,0,1.55-1.46V50.06h1.37q33,0,66.05,0a1.65,1.65,0,0,1,1.67,1q18.41,32.91,36.84,65.8c.75,1.33,1.49,2.66,2.37,4.21.35-.56.6-.92.8-1.3Q240.5,87.35,258.08,55c.88-1.63,1.79-3.24,2.65-4.87a1.22,1.22,0,0,1,1.26-.73q28.89,0,57.77,0c1,0,1.09.5,1.11,1.2q.12,6.42.26,12.83c.14,6.72.31,13.44.4,20.16,0,1,.36,1.24,1.38,1.23q24.52,0,49,0h1.66c0,.42.07.78.07,1.14,0,12.76,0,25.51,0,38.27,0,1-.33,1.21-1.3,1.21-7.08,0-14.17,0-21.25,0a2.38,2.38,0,0,0-2.5,1.41q-18.21,34-36.48,67.94a2.74,2.74,0,0,0-.36,1.66c1.61,10.11,3.27,20.2,4.9,30.31q2.79,17.24,5.53,34.5c.31,1.93.69,3.87.94,5.81.11.89.48,1.11,1.39,1.11,7.44,0,14.89,0,22.34,0,1.46,0,1.46,0,1.46,1.4v35h-1.51q-46.81,0-93.62,0a2.19,2.19,0,0,0-2.26,1.27c-4,7.3-8.1,14.56-12.13,21.85a1.62,1.62,0,0,1-1.69.93q-16.12,0-32.26,0a2.31,2.31,0,0,1-2.2-1.12c-4.92-7.28-9.89-14.52-14.81-21.8a2.27,2.27,0,0,0-2.17-1.14q-45.39,0-90.79,0H93V268.71h1.31c7.66,0,15.33,0,23,0,.91,0,1.3-.16,1.46-1.13,1.38-8.4,2.84-16.78,4.27-25.17q2-11.78,4-23.54,1.91-11.16,3.83-22.32a2.81,2.81,0,0,0-.44-2.13q-11.7-18.28-23.34-36.61-10-15.65-19.92-31.32A2.19,2.19,0,0,0,85,125.35c-8.54,0-17.08,0-25.62,0-1.57,0-1.57,0-1.57-1.53V84.77Zm208.84,89.78.34,0c.24-.37.5-.73.72-1.11q11.25-19.67,22.51-39.33a3.29,3.29,0,0,0,.4-2.35q-3.15-17.93-6.22-35.87a13.81,13.81,0,0,1-.19-4.83c.93-4.92,4.7-7.79,9.94-7.77,6.21,0,12.42.12,18.63.22.87,0,1.2-.17,1.2-1.07Q314,70.7,314,58.91c0-.84-.29-1-1.13-1q-23.65,0-47.3,0a1.45,1.45,0,0,0-1.5.89c-1.82,3.41-3.68,6.81-5.52,10.21l-35.88,66.28c-.16.3-.34.58-.58,1-.25-.39-.44-.68-.62-1l-9.85-17q-17.56-30.35-35.1-60.71a1.84,1.84,0,0,0-1.87-1q-26.31,0-52.64,0c-.45,0-.91,0-1.34.06v27h1.73c5.08-.07,10.17-.2,15.25-.21,3.12,0,6.25,0,9.36.24,4.08.28,7.69,4.64,7.09,8.41q-2.49,15.42-5,30.83-2.59,16-5.16,31.95c-1.85,11.47-3.66,23-5.53,34.41q-2.86,17.61-5.81,35.21c-2.08,12.3-4.28,24.59-6.35,36.9a23.56,23.56,0,0,1-4.57,11.25,6.35,6.35,0,0,1-5.37,2.61c-5.34-.07-10.68,0-16-.05-1.09,0-1.42.26-1.41,1.32,0,7.1,0,14.21,0,21.31,0,.3,0,.59.09,1h1.15q35.75,0,71.49,0c1,0,1.36-.22,1.35-1.25-.05-6.79,0-13.58,0-20.37,0-.37,0-.74-.05-1.14-1.85-.17-3.61-.36-5.38-.5-6-.46-9-5.33-7.93-9.95s1.66-9.44,2.45-14.17q2.55-15.34,5.09-30.71,2.9-17.44,5.79-34.9,3.44-20.8,6.85-41.64c.18-1.09.39-2.17.58-3.26h.25l41.72,72.87,35.55-72.54Zm-43.84,98.29L179.06,194.7l-.35.08c-.2,1.14-.39,2.28-.58,3.42q-2.32,14.45-4.65,28.9-2.13,13.29-4.31,26.55a3.06,3.06,0,0,0,.42,2.15q6.76,11.74,13.49,23.51,11.37,19.85,22.71,39.69a1.76,1.76,0,0,0,1.78,1q13.08,0,26.15,0a1.64,1.64,0,0,0,1.69-1q10.6-19.11,21.27-38.2l24-43.13q11-19.74,22-39.46,16.79-30.11,33.59-60.19c2.62-4.69,5.35-9.32,8-14a10,10,0,0,1,9.14-5.33c3.09,0,6.18.07,9.26.1h2.74v-1.13c0-8.21,0-16.41,0-24.62,0-1-.31-1.27-1.34-1.27q-35.7,0-71.39,0c-.41,0-.82.07-1.29.11,0,.46,0,.81.1,1.14q2.06,11.72,4.11,23.44c.13.73.43,1,1.26,1,3.34,0,6.69,0,10,0,1.65,0,1.9.36,1.53,1.9a2.39,2.39,0,0,1-.19.48c-1.59,3.28-3.05,6.64-4.82,9.84q-10.58,19.11-21.33,38.15-13.9,24.72-27.86,49.39-14,24.83-28.07,49.63C225.14,268.84,224.05,270.74,222.85,272.84ZM146.13,91.94h-80v27h1.34c5.38-.07,10.75-.1,16.13-.22,4.66-.09,8.15,1.55,10.46,5.56,2.51,4.38,5.29,8.63,7.93,13l28.49,46.57c.21.33.45.63.85,1.18.15-.68.24-1,.3-1.39q2-12.15,4-24.29c1.43-8.61,2.83-17.22,4.31-25.82,1-6,1-6.22-1.43-10.29-.37-.6-.78-1.17-1.11-1.78a14.73,14.73,0,0,1-1-2.16c-.34-1,.09-1.51,1.21-1.55,1.38,0,2.76-.1,4.14-.05,1.12,0,1.45-.4,1.56-1.42.58-5.38,1.24-10.75,1.87-16.13C145.51,97.42,145.81,94.75,146.13,91.94ZM340.82,275.22c-.58,0-1-.09-1.5-.1-5-.16-9.94-.27-14.91-.49a9.1,9.1,0,0,1-8.9-7.19c-.59-2.75-.91-5.56-1.33-8.35-.86-5.75-1.73-11.5-2.56-17.25-.77-5.34-1.5-10.7-2.26-16q-1-7.41-2.12-14.82c-.24-1.61-.49-3.21-.73-4.82a2.09,2.09,0,0,0-.8.91q-12.1,23.28-24.23,46.57a2.72,2.72,0,0,0-.19,2.26q1.69,5.28,3.29,10.58a8.65,8.65,0,0,1-.48,6.45,2.83,2.83,0,0,1-2.3,1.68c-.93.12-1.87.21-2.81.24-3.42.1-6.83.21-10.24.24-1,0-1.26.35-1.26,1.27q.06,10.56,0,21.1c0,1,.3,1.26,1.34,1.26q35.37,0,70.73,0c1,0,1.29-.25,1.28-1.21,0-7,0-14.06,0-21.1ZM222.68,226.81c-.26-.4-.4-.59-.52-.8q-3.28-5.59-6.55-11.21l-20.5-35.06c-2.43-4.16-4.88-8.31-7.27-12.48a1.37,1.37,0,0,0-1.74-.77,27.18,27.18,0,0,1-3.1.55c-.83.09-1.06.49-1.17,1.2-.65,4.58-1.37,9.14-2,13.72a3.5,3.5,0,0,0,.36,2q10.73,19.11,21.5,38.2l19.41,34.46c.56,1,1.14,2,1.82,3.13.31-.53.51-.84.68-1.17l12.34-23.26q13.55-25.59,27.08-51.19a2.14,2.14,0,0,0,.21-1.44c-1.5-5.12-3.06-10.21-4.58-15.32a1,1,0,0,0-1.06-.78,23.36,23.36,0,0,1-3.25-.27,1.32,1.32,0,0,0-1.66.86c-3.84,7.69-7.72,15.37-11.58,23.05l-13.8,27.42C225.8,220.67,224.29,223.65,222.68,226.81Z"/><path class="cls-5" d="M266.69,174.55l-8.81-33.39L222.33,213.7l-41.72-72.87h-.25c-.19,1.09-.4,2.17-.58,3.26q-3.43,20.82-6.85,41.64-2.88,17.46-5.79,34.9-2.55,15.36-5.09,30.71c-.79,4.73-1.39,9.5-2.45,14.17s2,9.49,7.93,9.95c1.77.14,3.53.33,5.38.5,0,.4.05.77.05,1.14,0,6.79,0,13.58,0,20.37,0,1-.32,1.25-1.35,1.25q-35.74,0-71.49,0H99c0-.39-.09-.68-.09-1,0-7.1,0-14.21,0-21.31,0-1.06.32-1.33,1.41-1.32,5.34.05,10.68,0,16,.05a6.35,6.35,0,0,0,5.37-2.61,23.56,23.56,0,0,0,4.57-11.25c2.07-12.31,4.27-24.6,6.35-36.9q3-17.59,5.81-35.21c1.87-11.46,3.68-22.94,5.53-34.41q2.56-16,5.16-31.95,2.5-15.42,5-30.83c.6-3.77-3-8.13-7.09-8.41-3.11-.21-6.24-.25-9.36-.24-5.08,0-10.17.14-15.25.21h-1.73v-27c.43,0,.89-.06,1.34-.06q26.33,0,52.64,0a1.84,1.84,0,0,1,1.87,1q17.52,30.37,35.1,60.71l9.85,17c.18.3.37.59.62,1,.24-.39.42-.67.58-1L258.56,69c1.84-3.4,3.7-6.8,5.52-10.21a1.45,1.45,0,0,1,1.5-.89q23.66,0,47.3,0c.84,0,1.14.21,1.13,1q0,11.79,0,23.58c0,.9-.33,1.09-1.2,1.07-6.21-.1-12.42-.19-18.63-.22-5.24,0-9,2.85-9.94,7.77a13.81,13.81,0,0,0,.19,4.83q3,17.94,6.22,35.87a3.29,3.29,0,0,1-.4,2.35Q279,153.81,267.75,173.49c-.22.38-.48.74-.72,1.11Z"/><path class="cls-4" d="M222.85,272.84c1.2-2.1,2.29-4,3.36-5.9q14-24.81,28.07-49.63t27.86-49.39q10.71-19,21.33-38.15c1.77-3.2,3.23-6.56,4.82-9.84a2.39,2.39,0,0,0,.19-.48c.37-1.54.12-1.89-1.53-1.9-3.34,0-6.69,0-10,0-.83,0-1.13-.28-1.26-1q-2-11.73-4.11-23.44c-.06-.33-.06-.68-.1-1.14.47,0,.88-.11,1.29-.11q35.7,0,71.39,0c1,0,1.35.26,1.34,1.27,0,8.21,0,16.41,0,24.62v1.13h-2.74c-3.08,0-6.17-.1-9.26-.1a10,10,0,0,0-9.14,5.33c-2.67,4.66-5.4,9.29-8,14q-16.82,30.07-33.59,60.19-11,19.72-22,39.46l-24,43.13Q246,299.93,235.41,319a1.64,1.64,0,0,1-1.69,1q-13.07,0-26.15,0a1.76,1.76,0,0,1-1.78-1q-11.32-19.86-22.71-39.69-6.75-11.76-13.49-23.51a3.06,3.06,0,0,1-.42-2.15q2.19-13.26,4.31-26.55,2.34-14.44,4.65-28.9c.19-1.14.38-2.28.58-3.42l.35-.08Z"/><path class="cls-4" d="M146.13,91.94c-.32,2.81-.62,5.48-.93,8.14-.63,5.38-1.29,10.75-1.87,16.13-.11,1-.44,1.46-1.56,1.42-1.38,0-2.76,0-4.14.05-1.12,0-1.55.54-1.21,1.55a14.73,14.73,0,0,0,1,2.16c.33.61.74,1.18,1.11,1.78,2.48,4.07,2.46,4.3,1.43,10.29-1.48,8.6-2.88,17.21-4.31,25.82q-2,12.15-4,24.29c-.06.36-.15.71-.3,1.39-.4-.55-.64-.85-.85-1.18L102,137.21c-2.64-4.32-5.42-8.57-7.93-13-2.31-4-5.8-5.65-10.46-5.56-5.38.12-10.75.15-16.13.22H66.15v-27Z"/><path class="cls-5" d="M340.82,275.22v1.19c0,7,0,14.07,0,21.1,0,1-.29,1.21-1.28,1.21q-35.37,0-70.73,0c-1,0-1.35-.25-1.34-1.26q.06-10.54,0-21.1c0-.92.26-1.26,1.26-1.27,3.41,0,6.82-.14,10.24-.24.94,0,1.88-.12,2.81-.24a2.83,2.83,0,0,0,2.3-1.68,8.65,8.65,0,0,0,.48-6.45q-1.59-5.31-3.29-10.58a2.72,2.72,0,0,1,.19-2.26q12.13-23.28,24.23-46.57a2.09,2.09,0,0,1,.8-.91c.24,1.61.49,3.21.73,4.82q1.06,7.41,2.12,14.82c.76,5.34,1.49,10.7,2.26,16,.83,5.75,1.7,11.5,2.56,17.25.42,2.79.74,5.6,1.33,8.35a9.1,9.1,0,0,0,8.9,7.19c5,.22,9.94.33,14.91.49C339.78,275.13,340.24,275.18,340.82,275.22Z"/><path class="cls-4" d="M222.68,226.81c1.61-3.16,3.12-6.14,4.62-9.12l13.8-27.42c3.86-7.68,7.74-15.36,11.58-23.05a1.32,1.32,0,0,1,1.66-.86,23.36,23.36,0,0,0,3.25.27,1,1,0,0,1,1.06.78c1.52,5.11,3.08,10.2,4.58,15.32a2.14,2.14,0,0,1-.21,1.44q-13.53,25.61-27.08,51.19L223.6,258.62c-.17.33-.37.64-.68,1.17-.68-1.17-1.26-2.15-1.82-3.13L201.69,222.2q-10.75-19.09-21.5-38.2a3.5,3.5,0,0,1-.36-2c.63-4.58,1.35-9.14,2-13.72.11-.71.34-1.11,1.17-1.2a27.18,27.18,0,0,0,3.1-.55,1.37,1.37,0,0,1,1.74.77c2.39,4.17,4.84,8.32,7.27,12.48l20.5,35.06q3.27,5.61,6.55,11.21C222.28,226.22,222.42,226.41,222.68,226.81Zm.11,21.31c1.38-2.6,2.67-5.06,4-7.51q14.7-27.75,29.45-55.48a5.22,5.22,0,0,0,.45-4.77c-.64-1.6-1-3.3-1.63-5.21l-31.82,63.23-.36,0q-18.12-31-36.23-62a39.41,39.41,0,0,0-.88,4.11,3.89,3.89,0,0,0,.52,3c3.58,6.27,7.12,12.56,10.67,18.85q12.19,21.63,24.38,43.29C221.76,246.37,222.24,247.17,222.79,248.12Z"/></g><rect x="52.37" y="423" width="330" height="4"/><rect x="52.37" y="361" width="330" height="4"/><path d="M76.55,412.65l1.56-11.73h-5v-3.53h5.51l1.14-8.69H74.58v-3.53h5.68l1.56-11.43h3.53L83.8,385.17h6.28l1.5-11.43h3.53l-1.49,11.43h4.91v3.53H93.08L92,397.39h5.15v3.53H91.46L89.9,412.65H86.31l1.56-11.73H81.64l-1.5,11.73Zm11.86-15.26,1.13-8.69H83.32l-1.14,8.69Z"/><path class="cls-5" d="M111.82,412.65,101.58,372.3h5.51l4.79,20.42c1.19,5,2.27,10,3,13.95H115c.66-4,1.92-8.8,3.29-14l5.39-20.36h5.45L134,392.78c1.14,4.79,2.21,9.58,2.81,13.83H137c.84-4.43,2-8.92,3.24-13.95l5.33-20.36h5.32l-11.43,40.35H134l-5.09-21a118.76,118.76,0,0,1-2.63-13.17h-.12A112.38,112.38,0,0,1,123,391.64l-5.75,21Z"/><path class="cls-5" d="M176.72,393.73H161.09v14.55h17.48v4.37H155.82V372.3h21.86v4.37H161.09v12.75h15.63Z"/><path class="cls-4" d="M191.86,400l-4.19,12.69h-5.39l13.78-40.35h6.22l13.77,40.35h-5.56L206.17,400Zm13.3-4.07-4-11.62c-.9-2.63-1.5-5-2.1-7.36h-.12c-.6,2.33-1.2,4.85-2,7.3l-3.95,11.68Z"/><path class="cls-4" d="M222,372.84a60.49,60.49,0,0,1,10-.84c5.57,0,9.22,1.08,11.68,3.29a10.34,10.34,0,0,1,3.17,7.73,10.57,10.57,0,0,1-7.55,10.23v.19c3.06,1.07,4.91,3.95,5.87,8.14,1.32,5.63,2.28,9.52,3.12,11.07h-5.39c-.66-1.19-1.56-4.61-2.64-9.64-1.2-5.56-3.41-7.66-8.14-7.84h-4.91v17.48H222Zm5.21,18.38h5.33c5.57,0,9.1-3.05,9.1-7.66,0-5.21-3.77-7.49-9.28-7.49a22.79,22.79,0,0,0-5.15.42Z"/><path class="cls-4" d="M275,393.73H259.4v14.55h17.48v4.37H254.13V372.3H276v4.37H259.4v12.75H275Z"/><path class="cls-5" d="M317.66,394.93c-.3-5.63-.66-12.45-.66-17.42h-.12c-1.44,4.67-3.05,9.76-5.09,15.33l-7.13,19.57h-4l-6.58-19.21c-1.92-5.75-3.48-10.9-4.61-15.69h-.12c-.12,5-.42,11.73-.78,17.84l-1.08,17.3h-5l2.81-40.35H292l6.89,19.52c1.67,5,3,9.4,4.07,13.59h.12c1.08-4.07,2.51-8.5,4.31-13.59l7.18-19.52h6.65l2.51,40.35h-5.15Z"/><path class="cls-5" d="M340.65,412.65,327.41,372.3h5.69l6.29,19.88c1.68,5.45,3.17,10.36,4.31,15.09h.12c1.14-4.67,2.75-9.76,4.61-15l6.83-19.94h5.56l-14.43,40.35Z"/></g></g></svg>